<!--?xml version="1.0" encoding="utf-8"?-->
<!-- Generator: Adobe Illustrator 18.1.1, SVG Export Plug-In . SVG Version: 6.00 Build 0)  -->

<svg version="1.1" id="_x32_" xmlns="http://www.w3.org/2000/svg" xmlns:xlink="http://www.w3.org/1999/xlink" x="0px" y="0px" viewBox="0 0 512 512" style="width: 32px; height: 32px; opacity: 1;" xml:space="preserve">
<style type="text/css">
	.st0{fill:#4B4B4B;}
</style>
<g>
	<path class="st0" d="M457.871,200.556H54.129c-22.052,0-39.93,17.878-39.93,39.929v231.586C14.2,494.122,32.077,512,54.129,512
		h403.742c22.052,0,39.929-17.878,39.929-39.929V240.485C497.8,218.433,479.923,200.556,457.871,200.556z M149.184,262.766
		c28.222,0,53.564,12.309,70.977,31.84H78.215C95.628,275.075,120.962,262.766,149.184,262.766z M149.184,452.921
		c-28.222,0-53.556-12.309-70.969-31.84h141.946C202.749,440.612,177.406,452.921,149.184,452.921z M233.08,402.594H65.289
		c-5.752-10.762-9.499-22.768-10.725-35.503h189.242C242.579,379.826,238.831,391.832,233.08,402.594z M54.564,348.604
		c1.226-12.744,4.973-24.749,10.725-35.512H233.08c5.751,10.763,9.498,22.768,10.725,35.512H54.564z M331.121,430.618
		c-14.259,0-25.822-11.563-25.822-25.822c0-14.259,11.563-25.823,25.822-25.823c14.267,0,25.823,11.564,25.823,25.823
		C356.944,419.055,345.388,430.618,331.121,430.618z M425.026,430.618c-14.267,0-25.823-11.563-25.823-25.822
		c0-14.259,11.556-25.823,25.823-25.823c14.267,0,25.822,11.564,25.822,25.823C450.848,419.055,439.293,430.618,425.026,430.618z
		 M453.194,324.975H302.953v-52.818h150.241V324.975z" style="fill: rgb(255, 127, 17);"></path>
	<polygon class="st0" points="255.939,115.761 242.274,92.963 78.505,186.471 142.938,186.471 	" style="fill: rgb(255, 127, 17);"></polygon>
	<polygon class="st0" points="383.078,33.594 376.2,22.123 256.998,90.137 265.59,104.465 	" style="fill: rgb(255, 127, 17);"></polygon>
	<path class="st0" d="M415.154,18.216c4.792-2.864,6.62-8.623,4.083-12.85l-0.785-1.303c-2.528-4.235-8.463-5.332-13.254-2.468
		l-18.304,10.968l9.963,16.621L415.154,18.216z" style="fill: rgb(255, 127, 17);"></path>
</g>
</svg>
